<?xml version="1.0" standalone="no"?>
<!DOCTYPE svg PUBLIC "-//W3C//DTD SVG 20010904//EN"
 "http://www.w3.org/TR/2001/REC-SVG-20010904/DTD/svg10.dtd">
<svg version="1.0" xmlns="http://www.w3.org/2000/svg"
 width="474.000000pt" height="474.000000pt" viewBox="0 0 474.000000 474.000000"
 preserveAspectRatio="xMidYMid meet">

<g transform="translate(0.000000,474.000000) scale(0.100000,-0.100000)"
fill="#000000" stroke="none">
<path d="M2130 4732 c0 -4 -45 -14 -100 -20 -232 -30 -486 -110 -731 -232
-447 -223 -832 -612 -1054 -1065 -111 -226 -191 -481 -217 -692 -7 -51 -16
-93 -20 -93 -4 0 -8 -119 -8 -265 0 -146 4 -265 8 -265 4 0 13 -40 20 -88 28
-208 107 -461 212 -677 204 -422 563 -803 965 -1026 262 -145 563 -247 829
-281 53 -7 96 -16 96 -20 0 -4 108 -8 240 -8 132 0 240 4 240 9 0 4 28 11 63
14 218 20 514 111 751 229 248 124 440 263 637 466 284 290 475 614 584 990
38 133 75 315 75 368 0 18 5 34 10 34 6 0 10 93 10 260 0 143 -4 260 -8 260
-4 0 -13 42 -20 93 -26 207 -106 465 -212 682 -188 386 -503 738 -862 964
-290 182 -674 321 -965 348 -35 3 -63 10 -63 14 0 5 -108 9 -240 9 -132 0
-240 -4 -240 -8z m620 -346 c509 -96 967 -384 1275 -801 171 -231 297 -517
362 -820 26 -123 27 -143 27 -395 0 -252 -1 -272 -27 -395 -110 -514 -378
-938 -790 -1249 -645 -487 -1540 -540 -2248 -135 -514 294 -869 788 -996 1384
-26 123 -27 144 -28 395 0 252 2 271 28 393 84 393 249 716 511 1003 272 297
668 522 1071 609 170 37 252 44 475 40 169 -2 229 -7 340 -29z"/>
<path d="M1137 3376 c-62 -17 -116 -61 -147 -122 l-25 -48 0 -846 c0 -686 3
-852 14 -883 17 -50 64 -103 115 -130 l41 -22 1225 -3 c873 -2 1240 0 1277 8
71 15 125 57 157 121 l26 53 0 840 c0 562 -4 854 -11 879 -13 47 -69 111 -123
140 l-41 22 -1230 2 c-981 1 -1240 -1 -1278 -11z m2488 -200 c12 -18 15 -47
13 -136 l-3 -113 -195 -111 c-230 -132 -683 -393 -896 -516 l-151 -88 -434
251 c-239 137 -517 298 -619 356 l-185 106 -3 122 c-2 100 0 124 13 137 15 14
130 16 1230 16 l1215 0 15 -24z m-2172 -636 c158 -91 287 -167 287 -170 -1 -5
-564 -382 -581 -388 -5 -2 -9 152 -9 363 0 202 4 365 8 363 4 -1 137 -77 295
-168z m2186 -195 c0 -241 -3 -365 -10 -365 -17 0 -580 381 -577 391 3 9 567
338 580 339 4 0 7 -164 7 -365z m-1452 -229 l203 -117 32 17 c18 9 122 69 232
132 l199 115 31 -17 c17 -10 193 -126 391 -259 l360 -242 0 -101 c0 -71 -4
-106 -14 -117 -12 -16 -110 -17 -1232 -17 -1194 0 -1219 0 -1229 19 -5 11 -10
65 -10 120 l0 101 388 259 387 259 30 -18 c17 -10 121 -70 232 -134z"/>
</g>
</svg>
